<?xml version="1.0" encoding="UTF-8" standalone="no"?>
<svg
   xmlns:dc="http://purl.org/dc/elements/1.1/"
   xmlns:cc="http://creativecommons.org/ns#"
   xmlns:rdf="http://www.w3.org/1999/02/22-rdf-syntax-ns#"
   xmlns:svg="http://www.w3.org/2000/svg"
   xmlns="http://www.w3.org/2000/svg"
   xmlns:sodipodi="http://sodipodi.sourceforge.net/DTD/sodipodi-0.dtd"
   xmlns:inkscape="http://www.inkscape.org/namespaces/inkscape"
   version="1.0"
   width="120.000000pt"
   height="120.000000pt"
   viewBox="0 0 120.000000 120.000000"
   preserveAspectRatio="xMidYMid meet"
   id="svg2"
   inkscape:version="0.91 r13725"
   sodipodi:docname="http_tunnel_icon.svg">
  <metadata
     id="metadata12">
    <rdf:RDF>
      <cc:Work
         rdf:about="">
        <dc:format>image/svg+xml</dc:format>
        <dc:type
           rdf:resource="http://purl.org/dc/dcmitype/StillImage" />
      </cc:Work>
    </rdf:RDF>
  </metadata>
  <defs
     id="defs10" />
  <sodipodi:namedview
     pagecolor="#ffffff"
     bordercolor="#666666"
     borderopacity="1"
     objecttolerance="10"
     gridtolerance="10"
     guidetolerance="10"
     inkscape:pageopacity="0"
     inkscape:pageshadow="2"
     inkscape:window-width="1920"
     inkscape:window-height="1017"
     id="namedview8"
     showgrid="false"
     inkscape:zoom="4.4500587"
     inkscape:cx="52.014735"
     inkscape:cy="48.324843"
     inkscape:window-x="1912"
     inkscape:window-y="-8"
     inkscape:window-maximized="1"
     inkscape:current-layer="svg2" />
  <g
     transform="translate(0.000000,120.000000) scale(0.100000,-0.100000)"
     fill="#000000"
     stroke="none"
     id="g4">
    <path
       d="M 81,1182 C 62,1173 37,1152 26,1137 5,1109 5,1099 5,600 5,101 5,91 26,63 73,-1 65,0 600,0 c 535,0 527,-1 574,63 21,28 21,38 21,537 0,499 0,509 -21,537 -47,64 -39,63 -574,63 -442,0 -488,-2 -519,-18 z m 683,-160 c 90,-42 149,-100 194,-190 0,0 18.94098,-42.13028 23.65254,-64.55932 C 999.46628,682.63977 998,508 998,508 l 4,-248 -46,0 -45,0 -3,243 c -3,232 -4,244 -27,287 -32,61 -86,117 -146,148 -43,23 -62,27 -135,27 -73,0 -92,-4 -135,-27 C 405,907 351,851 319,790 296,747 295,735 292,503 l -3,-243 -45,0 -46,0 4,247 c 0,0 0.0466,173.49543 16.34746,258.16949 C 222.11652,784.74774 237,822 237,822 c 40,85 97,147 172,186 78,42 122,52 213,48 61,-3 92,-11 142,-34 z M 643.53921,706 C 695.87706,671.19779 710,640 710,533 l 0,-93 -121,0 -121,0 4,99 c 3,113 10.37926,135.14627 62.82044,168 23.72976,14.86639 85.40129,14.50503 108.71877,-1 z"
       id="path6"
       inkscape:connector-curvature="0"
       sodipodi:nodetypes="ccscscscscccacccccccscccccccaccccssccccss" />
  </g>
  <rect
     style="fill:#ffffff;fill-opacity:0.94117647"
     id="rect4166"
     width="6.4130611"
     height="6.2397356"
     x="55.599998"
     y="77.560265"
     rx="0"
     ry="0" />
  <rect
     style="fill:#ffffff;fill-opacity:0.94117647"
     id="rect4166-9"
     width="7.5216613"
     height="7.3183727"
     x="55.119999"
     y="85.481628"
     rx="0"
     ry="0" />
  <rect
     style="fill:#ffffff;fill-opacity:0.94117647"
     id="rect4166-3"
     width="8.6302605"
     height="8.3970108"
     x="54.639999"
     y="94.802986"
     rx="0"
     ry="0" />
  <rect
     style="fill:#ffffff;fill-opacity:0.94117647"
     id="rect4166-3-5"
     width="9.5540934"
     height="9.2958746"
     x="54.200001"
     y="105.90413"
     rx="0"
     ry="0" />
</svg>
